<svg width="34" height="24" viewBox="0 0 34 24" fill="none" xmlns="http://www.w3.org/2000/svg">
<path d="M25.3227 0.00755302C22.0563 0.0963473 19.5245 0.972291 17.0595 1.81944C14.4233 2.72418 11.9352 3.57732 8.48786 3.61212C6.18436 3.64812 3.87721 3.25454 1.61014 2.47939L0 1.92983V22.4269L0.808714 22.7113C2.92036 23.4492 5.07936 23.8752 7.22864 23.976C7.56986 23.9916 7.90379 24 8.23164 24C11.8903 24 14.6916 23.0401 17.408 22.1137C20.2713 21.1346 22.9719 20.2094 26.6572 20.381C28.6106 20.4802 30.5388 20.8618 32.3801 21.5138L34 22.0801V1.57465L33.201 1.28667C31.1348 0.543079 28.9657 0.115777 26.7689 0.0195525C26.2872 -0.00158238 25.8048 -0.00558498 25.3227 0.00755302V0.00755302ZM25.3883 2.3906C25.8011 2.3786 26.2237 2.3786 26.6621 2.3954C27.1162 2.4146 27.5704 2.45539 28.0233 2.50819C28.208 3.26108 28.6809 3.91389 29.3426 4.32942C30.0043 4.74495 30.8032 4.89085 31.5714 4.73645V15.6581C31.1736 15.5781 30.7636 15.578 30.3658 15.6576C29.9679 15.7372 29.5903 15.895 29.2554 16.1217C28.9205 16.3483 28.6351 16.6392 28.4161 16.977C28.1971 17.3148 28.0491 17.6926 27.9808 18.088C27.5786 18.0471 27.1753 18.0175 26.7714 17.9992C22.6246 17.8192 19.567 18.8499 16.6114 19.8627C13.7445 20.8442 11.0281 21.7717 7.34521 21.599C6.88652 21.5753 6.42885 21.5352 5.97307 21.479C5.78675 20.7282 5.31374 20.0777 4.65307 19.6637C3.9924 19.2497 3.19528 19.1043 2.42857 19.2579V8.33621C2.82874 8.41669 3.24124 8.41632 3.64126 8.33514C4.04128 8.25396 4.42054 8.09364 4.75622 7.86384C5.09189 7.63403 5.37705 7.33948 5.59452 6.99793C5.81199 6.65637 5.95728 6.27487 6.02164 5.87637C6.85343 5.96157 7.68521 6.01076 8.51457 5.99757C12.3578 5.95917 15.1519 4.99803 17.8561 4.06929C20.2373 3.24974 22.5068 2.47939 25.3883 2.3906V2.3906ZM17 7.19749C17 8.92418 16.3188 9.59733 14.5714 9.59733V11.9972C15.5137 11.9972 16.3164 11.816 17 11.5028V16.7969H19.4286V7.19749H17ZM26.1071 8.39741C25.6241 8.39741 25.1608 8.58704 24.8192 8.92458C24.4776 9.26213 24.2857 9.71993 24.2857 10.1973C24.2857 10.6747 24.4776 11.1325 24.8192 11.47C25.1608 11.8075 25.6241 11.9972 26.1071 11.9972C26.5902 11.9972 27.0535 11.8075 27.3951 11.47C27.7367 11.1325 27.9286 10.6747 27.9286 10.1973C27.9286 9.71993 27.7367 9.26213 27.3951 8.92458C27.0535 8.58704 26.5902 8.39741 26.1071 8.39741ZM7.89286 11.9972C7.40978 11.9972 6.9465 12.1868 6.60491 12.5244C6.26333 12.8619 6.07143 13.3197 6.07143 13.7971C6.07143 14.2744 6.26333 14.7322 6.60491 15.0698C6.9465 15.4073 7.40978 15.5969 7.89286 15.5969C8.37593 15.5969 8.83922 15.4073 9.1808 15.0698C9.52239 14.7322 9.71429 14.2744 9.71429 13.7971C9.71429 13.3197 9.52239 12.8619 9.1808 12.5244C8.83922 12.1868 8.37593 11.9972 7.89286 11.9972Z" fill="#FCFCFF"/>
</svg>
